<?xml version="1.0" encoding="UTF-8"?>
<svg width="100px" height="100px" viewBox="0 0 100 100" version="1.1" xmlns="http://www.w3.org/2000/svg" xmlns:xlink="http://www.w3.org/1999/xlink">
    <!-- Generator: Sketch 41 (35326) - http://www.bohemiancoding.com/sketch -->
    <title>Combined Shape</title>
    <desc>Created with Sketch.</desc>
    <defs>
        <linearGradient x1="50%" y1="100%" x2="50%" y2="0%" id="linearGradient-1">
            <stop stop-color="white" offset="0%"></stop>
        </linearGradient>
        <path d="M54.8376469,99.7689769 C80.18203,97.3357574 100,75.9822461 100,50 C100,22.3857625 77.6142375,0 50,0 C22.3857625,0 0,22.3857625 0,50 C0,75.6334823 19.2895012,96.7616602 44.1447698,99.6607997 C44.1111745,88.7417235 44.0996339,77.8179611 44.1578592,66.8965716 C44.1603058,65.675508 43.754176,65.2845746 42.6140768,64.9394913 C39.0396452,63.8535652 35.4016031,62.8545133 32.010664,61.3438694 C27.2031638,59.1961488 24.2893048,55.2433777 22.769988,50.296381 C22.5082055,49.4445323 22.111862,48.9305272 21.228652,48.5540729 C15.7214342,46.2350174 13.4192165,39.8907957 16.1520296,34.7555717 C19.0316366,29.3380069 25.5982171,27.5763935 30.8289731,30.8148665 C35.8003932,33.8940703 37.0628207,40.5254591 33.5299808,45.2721629 C32.9990763,45.9864609 32.9085534,46.5752742 33.1996946,47.3981648 C33.8994122,49.3721372 35.024832,51.0372239 36.9771909,51.87942 C39.2060117,52.8398613 41.5498209,53.549333 44.1236073,54.4687504 L44.1236073,48.5516597 L44.1236073,47.7746192 C44.1236073,41.4883135 44.1064814,35.9790484 44.1456264,29.6927428 C44.148073,28.8264151 43.8789508,28.2931047 43.1841264,27.7453153 C38.4647025,24.0290348 37.9998551,17.5207177 42.0831721,13.1408157 C45.9658708,8.97568572 52.8749703,8.94914086 56.7723484,13.0853128 C60.8678982,17.4314304 60.4152837,23.9711188 55.8035087,27.754968 C55.3411079,28.1338356 54.8591346,28.8191756 54.8591346,29.3621387 C54.8297758,43.348867 54.8640277,57.3355954 54.8933864,71.3174974 C54.8933864,71.4960719 54.930085,71.6746464 54.9349781,71.7422152 C57.8610698,70.7142052 60.7675891,69.8165063 63.5713525,68.6654246 C65.6729519,67.80151 66.7054023,65.9071722 67.2632192,63.8101282 C67.3464023,63.4915899 67.050368,62.9968902 66.8130511,62.6735256 C64.1438488,59.0658377 64.0264136,54.760744 66.5316962,51.3847203 C69.1739864,47.8252958 73.7857615,46.3942865 78.15288,47.7746192 C82.1481206,49.0342935 85.1255902,52.8615798 84.9959223,56.9060513 C84.8589146,61.03981 82.708384,63.9380262 78.9039755,65.6803343 C78.3755174,65.9240644 77.6782464,66.3415427 77.5412388,66.8121106 C75.5497348,73.6630979 70.6590513,77.5241684 64.0557724,79.5946676 C57.8121385,81.5493346 55.3949323,85.1232381 54.8542414,92.0538599 C54.6548557,94.6104931 54.7471326,97.1981714 54.8376469,99.7689769 Z M20.0001057,39.2371944 C20.0249216,41.9218624 22.3030213,44.1020941 25.0079545,44.0341893 C27.6632559,43.9662844 29.8321657,41.7836274 29.8272025,39.1789903 C29.8222393,36.518574 27.5292501,34.3407675 24.7970193,34.4013968 C22.1094573,34.4571758 19.9827345,36.6034551 20.0001057,39.2371944 Z M49.4913225,24.4630324 C52.1689583,24.4315051 54.3403496,22.2294468 54.2609387,19.6296599 C54.1815278,17.0686758 52.0101365,14.997577 49.4069484,15.0000021 C46.7193863,15.0000021 44.560403,17.1462814 44.5877004,19.7848711 C44.6125164,22.4355866 46.7665366,24.4945596 49.4913225,24.4630324 Z M79.9999913,56.8100076 C79.9925465,54.2732753 77.8360448,52.2506799 75.146001,52.265231 C72.4758101,52.2773568 70.2845661,54.3605816 70.3168267,56.8585112 C70.351569,59.3758421 72.5601842,61.4396655 75.200596,61.4226893 C77.8757502,61.4008627 80.0049545,59.3588659 79.9999913,56.8100076 Z" id="path-2"></path>
    </defs>
    <g id="Shirts" stroke="none" stroke-width="1" fill="none" fill-rule="evenodd">
        <g id="Front" transform="translate(-450.000000, -315.000000)">
            <g id="Group" transform="translate(450.000000, 315.000000)">
                <mask id="mask-3" fill="white">
                    <use xlink:href="#path-2"></use>
                </mask>
                <use id="Combined-Shape" fill="url(#linearGradient-1)" xlink:href="#path-2"></use>
            </g>
        </g>
    </g>
</svg>